<svg width="96" height="96" xmlns="http://www.w3.org/2000/svg" xmlns:xlink="http://www.w3.org/1999/xlink" xml:space="preserve" overflow="hidden"><g transform="translate(-2 -456)"><path d="M58 467C58 471.418 54.4183 475 50 475 45.5817 475 42 471.418 42 467 42 462.582 45.5817 459 50 459 54.4183 459 58 462.582 58 467Z" fill="#0B76A0"/><path d="M71.8 508.2 66.2 484.4C66 483.6 65.6 482.8 65 482.2 62.6 480.2 59.8 478.8 56.6 477.8 54.4 477.4 52.2 477 50 477 47.8 477 45.6 477.4 43.4 478 40.2 478.8 37.4 480.4 35 482.4 34.4 483 34 483.8 33.8 484.6L28.2 508.4C28.2 508.6 28 509 28 509.4 28 511.6 29.8 513.4 32 513.4 33.8 513.4 35.4 512 35.8 510.4L40 493 40 549 48 549 48 513 52 513 52 549 60 549 60 492.8 64.2 510.2C64.6 511.8 66.2 513.2 68 513.2 70.2 513.2 72 511.4 72 509.2 72 508.8 71.8 508.4 71.8 508.2Z" fill="#0B76A0"/></g></svg>