<svg width="96" height="96" xmlns="http://www.w3.org/2000/svg" xmlns:xlink="http://www.w3.org/1999/xlink" xml:space="preserve" overflow="hidden"><g transform="translate(-77 -312)"><path d="M125.028 331C129.446 331 133.028 327.418 133.028 323 133.028 318.582 129.446 315 125.028 315 120.61 315 117.028 318.582 117.028 323 117.033 327.416 120.612 330.995 125.028 331ZM125.028 317C128.342 317 131.028 319.686 131.028 323 131.028 326.314 128.342 329 125.028 329 121.714 329 119.028 326.314 119.028 323 119.031 319.688 121.716 317.003 125.028 317Z" stroke="#156082"/><path d="M142.959 362.979 140 341.97C139.914 341.253 139.698 340.558 139.363 339.918 139.15 339.533 138.9 339.169 138.615 338.834 136.538 336.62 133.943 334.957 131.064 333.993 129.154 333.333 127.146 332.997 125.125 333 125.091 333 125.062 333.017 125.025 333.02 124.988 333.023 124.963 333 124.925 333 122.91 332.99 120.908 333.324 119.005 333.988 116.103 334.96 113.489 336.641 111.4 338.878 111.131 339.201 110.894 339.549 110.692 339.917 110.356 340.557 110.141 341.253 110.055 341.97L107.093 363.025C106.806 366.087 108.268 367.377 109.545 367.925 110.053 368.141 110.639 367.905 110.856 367.397 111.072 366.889 110.836 366.302 110.328 366.085 110.328 366.085 110.328 366.085 110.328 366.085 109.703 365.819 108.896 365.233 109.079 363.263L112.042 342.25C112.095 341.772 112.234 341.308 112.452 340.88 112.581 340.641 112.731 340.413 112.9 340.2 114.759 338.222 117.08 336.737 119.655 335.878 121.318 335.295 123.068 334.998 124.831 335L124.926 335C124.96 334.995 124.993 334.988 125.026 334.979 125.059 334.988 125.092 334.995 125.126 335L125.221 335C126.988 335 128.742 335.3 130.408 335.886 132.96 336.736 135.261 338.204 137.108 340.159 137.295 340.383 137.459 340.624 137.599 340.88 137.818 341.308 137.957 341.772 138.01 342.25L140.967 363.211C141.155 365.229 140.348 365.811 139.723 366.08 139.215 366.296 138.978 366.884 139.195 367.392 139.353 367.763 139.718 368.003 140.121 368 140.256 368 140.389 367.973 140.513 367.92 141.789 367.377 143.25 366.087 142.959 362.979Z" stroke="#156082"/><path d="M133.02 352.043C133.02 352.028 133.028 352.015 133.028 352L133.028 344C133.028 343.448 132.58 343 132.028 343 131.476 343 131.028 343.448 131.028 344L131.028 352C131.028 352.024 131.041 352.045 131.042 352.069 131.021 352.207 131.029 352.348 131.066 352.483L137.707 376 112.347 376 118.991 352.27 119.028 344C119.028 343.448 118.58 343 118.028 343 117.476 343 117.028 343.448 117.028 344L117.028 351.863 109.71 378 116.028 378 116.028 405 134.028 405 134.028 378 140.35 378ZM118.028 378 124.028 378 124.028 403 118.028 403ZM132.028 403 126.028 403 126.028 378 132.028 378Z" stroke="#156082"/></g></svg>