<svg width="276" height="276" xmlns="http://www.w3.org/2000/svg" xmlns:xlink="http://www.w3.org/1999/xlink" xml:space="preserve" overflow="hidden"><g transform="translate(-84 -536)"><path d="M242.125 613.338C242.125 624.55 233.213 633.463 222 633.463 210.788 633.463 201.875 624.55 201.875 613.338 201.875 602.125 210.788 593.213 222 593.213 233.213 593.213 242.125 602.412 242.125 613.338" stroke="#0B76A0" stroke-width="2.87498" fill="#0B76A0"/><path d="M322.625 624.838C322.625 636.05 313.713 644.963 302.5 644.963 291.287 644.963 282.375 636.05 282.375 624.838 282.375 613.625 291.287 604.713 302.5 604.713 313.713 604.713 322.625 613.625 322.625 624.838" stroke="#0B76A0" stroke-width="2.87498" fill="#0B76A0"/><path d="M161.625 624.838C161.625 636.05 152.712 644.963 141.5 644.963 130.288 644.963 121.375 636.05 121.375 624.838 121.375 613.625 130.288 604.713 141.5 604.713 152.712 604.713 161.625 613.625 161.625 624.838" stroke="#0B76A0" stroke-width="2.87498" fill="#0B76A0"/><path d="M108.725 754.787C108.725 712.812 159.325 678.888 222 678.888 284.388 678.888 335.275 712.812 335.275 754.787L108.725 754.787Z" stroke="#0B76A0" stroke-width="2.87498" fill="#0B76A0"/><path d="M134.6 689.525C146.675 681.475 160.763 675.15 176 671.125L176 667.963C176 664.8 174.562 661.638 172.55 659.625 171.688 658.763 169.675 657.612 167.087 656.463 151.275 648.987 132.587 648.987 116.488 656.175 113.613 657.325 111.312 658.763 110.162 659.625 108.438 661.638 107 664.8 107 667.963L107 716.838C113.613 706.775 122.812 697.287 134.6 689.525" stroke="#0B76A0" stroke-width="2.87498" fill="#0B76A0"/><path d="M256.5 668.25 256.5 656.463C256.5 653.3 255.062 650.138 253.05 648.125 252.188 647.263 250.175 646.112 247.588 644.963 231.775 637.487 213.088 637.487 196.987 644.675 194.112 645.825 191.812 647.263 190.663 648.125 188.362 650.138 187.212 653.3 187.212 656.463L187.212 668.25C198.425 665.95 209.925 664.8 221.713 664.8 233.5 664.8 245.287 666.237 256.5 668.25" stroke="#0B76A0" stroke-width="2.87498" fill="#0B76A0"/><path d="M337 716.838 337 667.963C337 664.8 335.562 661.638 333.55 659.625 332.688 658.763 330.675 657.612 328.088 656.463 312.275 648.987 293.588 648.987 277.487 656.175 274.612 657.325 272.312 658.763 271.162 659.625 268.862 661.638 267.713 664.8 267.713 667.963L267.713 671.125C282.95 675.15 297.037 681.475 309.112 689.525 321.188 697.287 330.388 706.775 337 716.838" stroke="#0B76A0" stroke-width="2.87498" fill="#0B76A0"/></g></svg>