<svg width="96" height="96" xmlns="http://www.w3.org/2000/svg" xmlns:xlink="http://www.w3.org/1999/xlink" xml:space="preserve" overflow="hidden"><g transform="translate(-109 -460)"><path d="M165.1 471C165.1 475.418 161.518 479 157.1 479 152.682 479 149.1 475.418 149.1 471 149.1 466.582 152.682 463 157.1 463 161.518 463 165.1 466.582 165.1 471Z" fill="#78206E"/><path d="M178.9 511.8 171.7 487C171.5 486 170.9 485.2 170.1 484.8 167.7 483.2 164.9 482.2 161.7 481.4 160.1 481.2 158.7 481 157.1 481 155.5 481 154.1 481.2 152.5 481.4 149.3 482 146.5 483.2 144.1 484.8 143.3 485.4 142.7 486 142.5 487L135.1 511.8C134.5 514 135.7 516.2 137.9 516.8 138.3 517 138.7 517 139.1 517 140.9 517 142.5 515.8 142.9 514.2L149.1 493.2 149.1 500.2 141.7 525 147.1 525 147.1 553 155.1 553 155.1 525 159.1 525 159.1 553 167.1 553 167.1 525 172.5 525 165.1 500.2 165.1 493.2 171.3 514.2C171.9 516 173.5 517 175.1 517 175.5 517 175.9 517 176.3 516.8 178.3 516.2 179.5 514 178.9 511.8Z" fill="#78206E"/></g></svg>